<svg id="Layer_1" data-name="Layer 1" xmlns="http://www.w3.org/2000/svg" viewBox="0 0 928.41 514.03"><defs><style>.cls-1{fill:#0c3f57;}.cls-2{fill:#54be93;}</style></defs><title>wwc_logo</title><path class="cls-1" d="M32.79,0L78.23,90.26,123.25,0l45.24,90.26L213.72,0h26.77l-72,144L123.25,53.74,78.23,144,6,0H32.79Z"/><path class="cls-1" d="M354,0V24.07H282V60.18h72V84H282v35.89h72V144H258.12V0H354Z"/><path class="cls-1" d="M26.77,184l45.44,90.26,45-90.26,45.24,90.26L207.7,184h26.77l-72,144-45.24-90.26L72.21,328,0,184H26.77Z"/><path class="cls-1" d="M344.43,328l-27.8-47.93H276V328H252.1V184h72a47.87,47.87,0,0,1,39.41,75.11,46.37,46.37,0,0,1-21.16,17.22L372,328h-27.6ZM324.1,208.1H276v47.73L324.1,256A23,23,0,0,0,340.91,249a23.2,23.2,0,0,0,7-17A24.09,24.09,0,0,0,324.1,208.1Z"/><path class="cls-1" d="M413.52,184h23.87V328H413.52V184Z"/><path class="cls-1" d="M478.88,184H599V208.1H551.08V328H527V208.1H478.88V184Z"/><path class="cls-1" d="M736.37,184V208.1h-72v36.11h72v23.86h-72V304h72V328H640.51V184h95.86Z"/><path class="cls-2" d="M251.94,370a69.68,69.68,0,0,1,27.91,5.6,73.32,73.32,0,0,1,22.93,15.56l-17,17a47.82,47.82,0,0,0-67.84,0A46.13,46.13,0,0,0,203.81,442q0,19.71,14.11,34a46.7,46.7,0,0,0,34,13.9q19.49,0,33.82-13.9l17,16.81a73.3,73.3,0,0,1-22.93,15.56,69.6,69.6,0,0,1-27.91,5.6q-29.88,0-51-21.16-21.16-21-21.17-50.83,0-29.67,21.17-50.83Q221.86,370,251.94,370Z"/><path class="cls-2" d="M387.42,370q29.88,0,50.84,21.17,21.38,21.16,21.37,50.83,0,30.08-21.37,50.83Q417.29,514,387.42,514T336.6,492.87q-21.16-21-21.17-50.83,0-29.67,21.17-50.83Q357.34,370,387.42,370Zm0,24.07q-19.7,0-34,14.11A46.46,46.46,0,0,0,339.5,442,47.47,47.47,0,0,0,387.42,490a46.46,46.46,0,0,0,33.83-13.9q14.13-14.32,14.12-34A48.2,48.2,0,0,0,387.42,394.1Z"/><path class="cls-2" d="M491.59,370h47.92q29.88,0,50.83,21.17,21.16,21.16,21.17,50.83,0,29.87-21.17,50.83Q569.39,514,539.52,514H491.59V370ZM539.52,490a46.49,46.49,0,0,0,33.83-13.9q14.1-14.32,14.11-34a48.18,48.18,0,0,0-47.93-47.93H515.45V490h24.07Z"/><path class="cls-2" d="M739.33,370V394.1h-72v36.11h72v23.86h-72V490h72V514H643.47V370h95.86Z"/><polygon class="cls-2" points="806.05 393.37 797.92 417.36 859.65 441.91 779.02 473.11 768.61 503.81 928.41 441.91 806.05 393.37"/><polygon class="cls-2" points="122.36 503.81 130.49 479.82 68.77 455.27 149.4 424.07 159.8 393.37 0 455.27 122.36 503.81"/></svg>